<svg id="Layer_1" data-name="Layer 1" xmlns="http://www.w3.org/2000/svg" viewBox="0 0 144 113.72"><defs><style>.cls-1{fill:#000200;}.cls-2{fill:#fff;}.cls-3{fill:#fed10f;}.cls-4{fill:#f7a81f;}</style></defs><title>Logo Colmenita 150x150</title><path class="cls-1" d="M24,127.48a20.63,20.63,0,0,1-5.89-.93,17,17,0,0,1-5.86-2.83,9.8,9.8,0,0,1-3.42-7.92,15.8,15.8,0,0,1,2.45-8.69,11.93,11.93,0,0,1,7.38-5.37,12.54,12.54,0,0,1,2.83-.32,18.23,18.23,0,0,1,4.89.83c2.36.68,2.71,2.28,2.71,3.18a2.53,2.53,0,0,1-.4,1.36,3.14,3.14,0,0,1-2,1.53c-.59.16-1.18.31-1.75.44a4.91,4.91,0,0,1-1.33.19,9.88,9.88,0,0,1-2.08-.3,8,8,0,0,0-1.46-.25.75.75,0,0,0-.33.06l0,0h0c-2.38.82-3.49,2.6-3.49,5.59a9.13,9.13,0,0,0,.39,2.61,5.91,5.91,0,0,0,2.31,3.18,6.41,6.41,0,0,0,3.8,1.21,6.52,6.52,0,0,0,2.05-.33,13.28,13.28,0,0,0,1.76-1,5.27,5.27,0,0,1,2.63-1,2.51,2.51,0,0,1,1.47.46l.05,0a4.73,4.73,0,0,1,2.15,3.56,3,3,0,0,1-1.36,2.42A12.42,12.42,0,0,1,24,127.48Z" transform="translate(-3 -18.14)"/><path class="cls-2" d="M21.26,102.61a17.11,17.11,0,0,1,4.47.77c1.21.35,1.82,1,1.82,2a1.45,1.45,0,0,1-.24.77,1.92,1.92,0,0,1-1.27,1c-.59.16-1.16.3-1.71.43a3.33,3.33,0,0,1-1,.15,8.35,8.35,0,0,1-1.77-.27,8.91,8.91,0,0,0-1.69-.26,1.92,1.92,0,0,0-.77.14c-2.78,1-4.18,3.14-4.18,6.54a9.92,9.92,0,0,0,.44,2.88,6.91,6.91,0,0,0,2.69,3.7,7.46,7.46,0,0,0,6.73,1,13.44,13.44,0,0,0,2-1.1,4.22,4.22,0,0,1,2-.82,1.3,1.3,0,0,1,.77.24,3.61,3.61,0,0,1,1.68,2.59,1.78,1.78,0,0,1-.87,1.45,11,11,0,0,1-6.58,2,18.78,18.78,0,0,1-5.43-.86,15.71,15.71,0,0,1-5.34-2.55A8.46,8.46,0,0,1,10,115.54a14.33,14.33,0,0,1,2.21-7.88,10.49,10.49,0,0,1,6.54-4.76,11.15,11.15,0,0,1,2.5-.29m0-2.81a13.77,13.77,0,0,0-3.12.36h0a13.24,13.24,0,0,0-8.22,6,17.26,17.26,0,0,0-2.67,9.46,11.09,11.09,0,0,0,3.89,9,18.24,18.24,0,0,0,6.37,3.1,22.36,22.36,0,0,0,6.33,1,13.73,13.73,0,0,0,8.23-2.55,4.13,4.13,0,0,0,1.87-3.41c0-1.61-.88-3.13-2.63-4.53l-.05,0-.05,0a3.71,3.71,0,0,0-2.17-.69,6.27,6.27,0,0,0-3.31,1.21,15.8,15.8,0,0,1-1.58.92,5.2,5.2,0,0,1-1.66.27,5.29,5.29,0,0,1-3.18-1,4.88,4.88,0,0,1-1.91-2.61,8.08,8.08,0,0,1-.34-2.31c0-3.18,1.39-4.09,2.75-4.56l.06,0a7.62,7.62,0,0,1,1.2.21,10.77,10.77,0,0,0,2.37.34,6,6,0,0,0,1.65-.23c.58-.14,1.18-.29,1.79-.46A4.32,4.32,0,0,0,29.62,107a3.83,3.83,0,0,0,.56-2,4.43,4.43,0,0,0-3.59-4.36,19.77,19.77,0,0,0-5.31-.89Z" transform="translate(-3 -18.14)"/><path class="cls-1" d="M39.43,125.71a5.24,5.24,0,0,1-2.56-.59,8.2,8.2,0,0,1-4.24-7.64,9.66,9.66,0,0,1,.35-2.57,11.32,11.32,0,0,1,1.63-3.32c1-1.47,1.24-1.8,1.28-1.87a3.53,3.53,0,0,1,3.41-2.19,5.63,5.63,0,0,1,4.33,2,11.92,11.92,0,0,1,2.47,4.86,9,9,0,0,1,.31,2.31c0,2.61-1.23,5.22-3.65,7.77A4.4,4.4,0,0,1,39.43,125.71Zm.5-12.25a5.45,5.45,0,0,0-1.22,1.28,4.93,4.93,0,0,0-1.13,2.88c0,.67.2,1.33,1.71,1.66h0a2.6,2.6,0,0,0,.59.08c.58,0,1.45,0,1.45-2A6,6,0,0,0,39.93,113.46Z" transform="translate(-3 -18.14)"/><path class="cls-2" d="M39.3,108.69a4.5,4.5,0,0,1,3.46,1.64,10.85,10.85,0,0,1,2.23,4.4,8.26,8.26,0,0,1,.26,2q0,3.47-3.33,7a3.25,3.25,0,0,1-2.49.85,4.05,4.05,0,0,1-2-.45,7.06,7.06,0,0,1-3.64-6.62,8.22,8.22,0,0,1,.31-2.26,10.4,10.4,0,0,1,1.47-3,17.71,17.71,0,0,0,1.37-2,2.38,2.38,0,0,1,2.36-1.51m.61,11.84c1.74,0,2.61-1.07,2.61-3.2a7.35,7.35,0,0,0-2-5,.71.71,0,0,0-.41-.12c-.62,0-1.39.61-2.3,1.84a6,6,0,0,0-1.36,3.57q0,2.22,2.61,2.79a3.51,3.51,0,0,0,.88.12m-.61-14.16a4.7,4.7,0,0,0-4.45,2.83c-.06.1-.31.49-1.17,1.69v0l0,0a12.44,12.44,0,0,0-1.78,3.66,10.5,10.5,0,0,0-.4,2.89,9.4,9.4,0,0,0,4.81,8.64h0a6.34,6.34,0,0,0,3.12.74,5.51,5.51,0,0,0,4.18-1.57c2.63-2.77,4-5.66,4-8.57a10.13,10.13,0,0,0-.34-2.59h0a13,13,0,0,0-2.72-5.33,6.83,6.83,0,0,0-5.2-2.42Z" transform="translate(-3 -18.14)"/><path class="cls-1" d="M49.7,127.66a4,4,0,0,1-2-.55,2.72,2.72,0,0,1-1.33-2.54,2.89,2.89,0,0,1,.18-1,21.77,21.77,0,0,0,.75-5.22l.15-5.69a16.11,16.11,0,0,0-.34-3.07,22.63,22.63,0,0,1-.41-3.41,6.53,6.53,0,0,1,.66-3,3.37,3.37,0,0,1,3.18-1.89A2.68,2.68,0,0,1,53.38,104a3.65,3.65,0,0,1-.09,1.17c-.06.32-.08.45-.09.49v8c0,.82,0,1.94,0,3.33.1,1.75.15,2.88.15,3.45a13.23,13.23,0,0,1-1,5.56A2.73,2.73,0,0,1,49.7,127.66Z" transform="translate(-3 -18.14)"/><path class="cls-2" d="M50.52,102.57a1.47,1.47,0,0,1,1.6,1.57,2.45,2.45,0,0,1-.07.78,4.18,4.18,0,0,0-.11.71v8a34.18,34.18,0,0,0,0,3.46q.15,2.57.15,3.39a11.94,11.94,0,0,1-.93,5,1.49,1.49,0,0,1-1.49.93,2.79,2.79,0,0,1-1.39-.39,1.49,1.49,0,0,1-.69-1.43,1.81,1.81,0,0,1,.11-.6,21.56,21.56,0,0,0,.81-5.58c.05-1.91.11-3.81.16-5.69a18.13,18.13,0,0,0-.36-3.33,21,21,0,0,1-.39-3.19,5.41,5.41,0,0,1,.52-2.41,2.1,2.1,0,0,1,2.05-1.2m0-2.53a4.65,4.65,0,0,0-4.32,2.59,7.91,7.91,0,0,0-.78,3.55,22.54,22.54,0,0,0,.42,3.63,15.15,15.15,0,0,1,.32,2.81h0c0,1.88-.1,3.78-.15,5.68a19.88,19.88,0,0,1-.69,4.86,4.25,4.25,0,0,0-.24,1.4,4,4,0,0,0,2,3.64,5.27,5.27,0,0,0,2.64.72,4,4,0,0,0,3.8-2.42,14.48,14.48,0,0,0,1.16-6.07c0-.6,0-1.72-.15-3.53a29.19,29.19,0,0,1,0-3.17v-8c0-.06,0-.16.07-.33a5.14,5.14,0,0,0,.11-1.55A4,4,0,0,0,50.52,100Z" transform="translate(-3 -18.14)"/><path class="cls-1" d="M72.83,129.53a4.41,4.41,0,0,1-2.09-.53,1.53,1.53,0,0,1-.91-1.28,3.07,3.07,0,0,1,.07-1.4v-.07a18.18,18.18,0,0,0,1-6.3c0-.58,0-1.18-.07-1.8a43.91,43.91,0,0,0-2.48,5.73l0,.05,0,0a3.5,3.5,0,0,1-1.49,1.52,4.11,4.11,0,0,1-2.09.6,2.56,2.56,0,0,1-2.31-1.31,4.64,4.64,0,0,1-.56-2.3c0-.15,0-.32,0-.5a22.65,22.65,0,0,1-1.58,2.89l0,0a3.19,3.19,0,0,1-2.72,1.29,2.61,2.61,0,0,1-2.66-1.6,8.36,8.36,0,0,1-.54-2.47,24.05,24.05,0,0,1,0-2.51c0-.55.08-2.21.08-2.43s0-.72-.09-1.32-.1-1.17-.1-1.51c0-4.12,2.27-4.73,3.62-4.73a4.62,4.62,0,0,1,1.28.19A2.47,2.47,0,0,1,61,112.12a10.31,10.31,0,0,1,1.08-1.65,3.76,3.76,0,0,1,3-1.54,4.49,4.49,0,0,1,1.75.39l.2.08,1.14,1.09.08.33a17,17,0,0,1,.3,2.05l.94-1.08,0-.05,0,0a5.86,5.86,0,0,1,3.92-1.84,5.25,5.25,0,0,1,1.81.33l.13,0,.12.08a2.77,2.77,0,0,1,1.17,2.09v0l.07,1.52a40.81,40.81,0,0,1,.42,5.5,22.57,22.57,0,0,1-1.4,8.12A2.81,2.81,0,0,1,72.83,129.53Zm-.9-13.18" transform="translate(-3 -18.14)"/><path class="cls-2" d="M65.09,110.09a3.23,3.23,0,0,1,1.25.28.24.24,0,0,1,.09.06L67,111a.5.5,0,0,1,.16.29,18.14,18.14,0,0,1,.26,2,10.63,10.63,0,0,0,.29,1.62.28.28,0,0,0,.48.1c.73-.81,1.45-1.63,2.16-2.45l0,0A4.71,4.71,0,0,1,73.5,111a3.9,3.9,0,0,1,1.37.25l.08,0a1.68,1.68,0,0,1,.63,1.24c0,.49,0,1,.08,1.51v0a40.79,40.79,0,0,1,.41,5.38,21.34,21.34,0,0,1-1.34,7.74c-.23.77-.86,1.16-1.9,1.16a3.24,3.24,0,0,1-1.64-.45c-.1,0-.17-.14-.22-.41a1.88,1.88,0,0,1,0-.86A19.24,19.24,0,0,0,72.12,120a27.5,27.5,0,0,0-.37-4.4c0-.17,0-.26-.15-.26-.3,0-.56.21-.78.64a40.54,40.54,0,0,0-3.5,7.55,2.41,2.41,0,0,1-1,1,3,3,0,0,1-1.51.44,1.39,1.39,0,0,1-1.3-.72,3.41,3.41,0,0,1-.41-1.73,15.42,15.42,0,0,1,.22-2.13,15.59,15.59,0,0,0,.23-2.19,5.7,5.7,0,0,0-.08-1,.28.28,0,0,0-.53-.09c-.38.76-.9,1.86-1.55,3.31a25.63,25.63,0,0,1-2,3.8,2.06,2.06,0,0,1-1.78.81,1.51,1.51,0,0,1-1.58-.87,7.54,7.54,0,0,1-.47-2.14c-.05-.62-.06-1.42,0-2.38,0-1.47.08-2.29.08-2.46a13.84,13.84,0,0,0-.1-1.43c-.06-.63-.09-1.1-.09-1.4q0-3.57,2.46-3.57a3.53,3.53,0,0,1,1,.15,1.33,1.33,0,0,1,1,1.41,9.61,9.61,0,0,1-.13,1.19,8.23,8.23,0,0,0-.13,1.19,2.42,2.42,0,0,0,.11.8.28.28,0,0,0,.47.11,10.53,10.53,0,0,0,1.32-2A16.27,16.27,0,0,1,63,111.21a2.62,2.62,0,0,1,2.09-1.12m0-2.32a4.79,4.79,0,0,0-3.69,1.75l-.4,0a3.74,3.74,0,0,0-1.52-.83,5.88,5.88,0,0,0-1.61-.24c-1.12,0-4.78.43-4.78,5.89,0,.39,0,.9.11,1.62s.08,1,.08,1.21,0,.51-.07,2.38h0c0,1.06,0,1.92,0,2.63h0a9.62,9.62,0,0,0,.63,2.81,3.76,3.76,0,0,0,3.73,2.32,4.39,4.39,0,0,0,3.66-1.77l0,0,0,0a2.14,2.14,0,0,0,.13-.19l0,0a3.69,3.69,0,0,0,3.32,1.9,5.35,5.35,0,0,0,2.68-.76A5.12,5.12,0,0,0,69.11,125c-.09.28-.18.55-.28.82l0,.07,0,.07a4.17,4.17,0,0,0-.1,1.87v.06a2.66,2.66,0,0,0,1.56,2.13,5.6,5.6,0,0,0,2.58.64A4,4,0,0,0,76.92,128a23.77,23.77,0,0,0,1.47-8.5,42.2,42.2,0,0,0-.42-5.6v0l0-.89,0-.52v-.18a3.94,3.94,0,0,0-1.69-2.91L76,109.2l-.26-.09a6.31,6.31,0,0,0-2.21-.41,6.58,6.58,0,0,0-4.16,1.67h0a1.66,1.66,0,0,0-.48-.84l-.13-.11-.74-.71-.2-.19a.82.82,0,0,0-.25-.16l-.25-.11a5.68,5.68,0,0,0-2.2-.48Z" transform="translate(-3 -18.14)"/><path class="cls-1" d="M86.31,127a6.7,6.7,0,0,1-2.74-.55c-3.39-1.51-5.17-5-5.31-10.48a7.07,7.07,0,0,1,1.79-5,6.15,6.15,0,0,1,4.77-2.08,7.37,7.37,0,0,1,5.29,2.25,7.06,7.06,0,0,1,2.27,5.33v.17l-.06.17c-.32,1-1.37,2-3.3,3.13-2.13,1.28-2.84,1.75-3.08,1.93a1.69,1.69,0,0,0,.74.23,7.29,7.29,0,0,0,3-1.06l.64-.33.58.43a2.82,2.82,0,0,1,1.18,2.35,3.26,3.26,0,0,1-.68,2,2.86,2.86,0,0,1-1.9,1.16A23.53,23.53,0,0,1,86.31,127ZM85,114.27a1.48,1.48,0,0,0-.69.14l0,0c-.3.15-.45.59-.45,1.31a5,5,0,0,0,.06.86c1.87-.19,2.33-.94,2.51-1.51l0-.09,0-.07a.44.44,0,0,0,0-.08s0-.12-.25-.27A2.34,2.34,0,0,0,85,114.27Z" transform="translate(-3 -18.14)"/><path class="cls-2" d="M84.82,110a6.2,6.2,0,0,1,4.48,1.92,6,6,0,0,1,1.92,4.48c-.22.7-1.15,1.53-2.79,2.5-2,1.21-3.11,2-3.39,2.15s-.63.41-.63.64c0,.39.27.75.82,1.06a3,3,0,0,0,1.45.46,8.14,8.14,0,0,0,3.26-1,.44.44,0,0,1,.53.09,1.65,1.65,0,0,1,.45,1.19,2.17,2.17,0,0,1-.44,1.3,1.77,1.77,0,0,1-1.16.71,29.35,29.35,0,0,1-3,.37,5.48,5.48,0,0,1-2.27-.45c-3-1.31-4.49-4.46-4.62-9.45a6,6,0,0,1,1.49-4.23A5.06,5.06,0,0,1,84.82,110m-1.34,7.82q3.31-.15,4-2.35a1.29,1.29,0,0,0,.15-.59,1.46,1.46,0,0,0-.82-1.27,3.57,3.57,0,0,0-1.83-.48,2.61,2.61,0,0,0-1.26.29,2.4,2.4,0,0,0-1.08,2.35c0,1.31.27,2,.82,2m1.34-10.14a7.36,7.36,0,0,0-5.63,2.46,8.22,8.22,0,0,0-2.09,5.81h0v0c.15,5.93,2.17,9.81,6,11.51a7.88,7.88,0,0,0,3.22.65,24.57,24.57,0,0,0,3.37-.4,4.06,4.06,0,0,0,2.65-1.61,4.43,4.43,0,0,0,.91-2.69c0-1.33.91-2.71-.16-3.49l-.16-.85c1.22-.91.2-1,.51-2l.1-.33v-.35a8.25,8.25,0,0,0-2.61-6.17,8.51,8.51,0,0,0-6.11-2.58Z" transform="translate(-3 -18.14)"/><path class="cls-1" d="M102.71,126.55A2,2,0,0,1,100.6,125v0c-.13-1-.25-2.53-.35-4.72,0-.3,0-.59,0-.86,0,.08-.06.16-.1.25a37.19,37.19,0,0,1-1.71,4A2.75,2.75,0,0,1,95.94,125a2.44,2.44,0,0,1-2.43-2,10.08,10.08,0,0,1-.18-2.48c0-.76.06-1.32.08-1.69a4.26,4.26,0,0,1,0-.47h0c0-.36,0-1-.09-1.82s-.1-1.56-.1-2a7.81,7.81,0,0,1,.41-2.71l0,0a2.49,2.49,0,0,1,2.48-1.48A2.54,2.54,0,0,1,98.79,112a4,4,0,0,1,2.92-1.29,4.79,4.79,0,0,1,1.32.19l.44.13.24.39a15.16,15.16,0,0,1,1.87,5.85c.07.65.18,2.53.33,5.75.55,2.36-.73,3-1.31,3.17A6.65,6.65,0,0,1,102.71,126.55Z" transform="translate(-3 -18.14)"/><path class="cls-2" d="M96.16,111.4a1.41,1.41,0,0,1,1.53,1,1.68,1.68,0,0,1,.07.52,5.21,5.21,0,0,1-.2,1.14,4.82,4.82,0,0,0-.21,1.17l0,0a.4.4,0,0,0,.61-.09,17,17,0,0,1,1.36-2,3.05,3.05,0,0,1,2.35-1.23h.07a1.5,1.5,0,0,1,1.31.83,14.44,14.44,0,0,1,1.33,4.71c.08.62.19,2.55.34,5.77.27,1.1.11,1.73-.48,1.9a6,6,0,0,1-1.57.3q-.85,0-1-.63c-.13-1-.24-2.48-.34-4.62a35.27,35.27,0,0,0-.31-3.75.34.34,0,0,0-.62-.14A13.42,13.42,0,0,0,99,119.17,35.51,35.51,0,0,1,97.39,123a1.57,1.57,0,0,1-1.45.84c-.67,0-1.1-.39-1.3-1.16a8.38,8.38,0,0,1-.15-2.16c.07-1.47.1-2.21.11-2.21v0h0c0-.4,0-1-.09-1.9s-.1-1.51-.1-1.94a6.69,6.69,0,0,1,.34-2.3,1.36,1.36,0,0,1,1.41-.78m0-2.32a3.63,3.63,0,0,0-3.54,2.18l0,0,0,0a8.73,8.73,0,0,0-.49,3.12c0,.49,0,1.18.1,2.1s.08,1.37.09,1.64c0,0,0,0,0,.08s0,.24,0,.44c0,.37,0,.92-.08,1.67v0a11,11,0,0,0,.21,2.74v.06a3.61,3.61,0,0,0,3.55,2.9,3.9,3.9,0,0,0,3.41-1.92c0,.31.06.59.1.83v.1a3.1,3.1,0,0,0,3.25,2.55,8,8,0,0,0,2.23-.4c.48-.14,2.86-1,2.13-4.43-.2-4.24-.29-5.3-.34-5.73a16.18,16.18,0,0,0-2-6.32l-.26-.43a1.1,1.1,0,0,0-.61-.47l-.48-.13a6,6,0,0,0-1.64-.24,5,5,0,0,0-2.59.72,3.89,3.89,0,0,0-3-1.2Z" transform="translate(-3 -18.14)"/><path class="cls-1" d="M110,125.62a2.65,2.65,0,0,1-2.7-1.77v-.06a11.48,11.48,0,0,1-.34-2.94c0-.45,0-1.11.08-2s.07-1.47.07-1.86a10.79,10.79,0,0,1,.81-4.82,3,3,0,0,1,2-1.62,3.76,3.76,0,0,1-1.57-1.15,2.46,2.46,0,0,1-.57-1.68,3.1,3.1,0,0,1,1.42-3,4.56,4.56,0,0,1,2.3-.62,3.46,3.46,0,0,1,2.06.65,2.6,2.6,0,0,1,1.11,2.19,3.86,3.86,0,0,1-.59,2,3.67,3.67,0,0,1-1.3,1.39,2.76,2.76,0,0,1-.66.29l.33.13,0,0a2.63,2.63,0,0,1,1.77,2.41,1.94,1.94,0,0,1-.5,1.32,3.11,3.11,0,0,0-.43,1.65v0a10,10,0,0,1-.37,2.69,2.46,2.46,0,0,0-.11.77,8.43,8.43,0,0,0,.15,1.26,11.14,11.14,0,0,1,.18,1.71,10.84,10.84,0,0,1-.06,1.16,1.7,1.7,0,0,1-1.43,1.59A6.59,6.59,0,0,1,110,125.62Z" transform="translate(-3 -18.14)"/><path class="cls-2" d="M111.48,105.4a2.28,2.28,0,0,1,1.33.41,1.35,1.35,0,0,1,.57,1.16,2.53,2.53,0,0,1-.41,1.32,2.6,2.6,0,0,1-.85.95,1.93,1.93,0,0,1-1,.26,2.36,2.36,0,0,1-1.86-.93,1.25,1.25,0,0,1-.26-.86,2,2,0,0,1,.78-1.86,3.3,3.3,0,0,1,1.67-.45m-.63,6.29a2.72,2.72,0,0,1,1.08.23c.7.32,1,.74,1,1.26a.7.7,0,0,1-.22.52,4.26,4.26,0,0,0-.71,2.42,11.12,11.12,0,0,1-.29,2.35,3.34,3.34,0,0,0-.19,1.19,10.08,10.08,0,0,0,.17,1.47,9.68,9.68,0,0,1,.16,1.5,8.23,8.23,0,0,1,0,1q-.06.48-.39.48a5.61,5.61,0,0,1-1.45.23,1.37,1.37,0,0,1-1.49-.9,9.78,9.78,0,0,1-.3-2.6c0-.42,0-1.07.07-1.94s.08-1.51.08-1.93a9.86,9.86,0,0,1,.67-4.25,1.87,1.87,0,0,1,1.82-1m.63-8.82a5.82,5.82,0,0,0-2.93.78,4.34,4.34,0,0,0-2.06,4.06,3.72,3.72,0,0,0,.87,2.5l.21.24a4.7,4.7,0,0,0-.81,1.14,12,12,0,0,0-.94,5.39c0,.36,0,1-.07,1.79s-.08,1.6-.08,2.08a12.34,12.34,0,0,0,.39,3.28l0,.06,0,.07a3.87,3.87,0,0,0,3.9,2.62,8,8,0,0,0,1.91-.25,3,3,0,0,0,2.45-2.7,10.85,10.85,0,0,0,.07-1.3,11.74,11.74,0,0,0-.2-1.93,6.86,6.86,0,0,1-.13-1,1.79,1.79,0,0,1,0-.34,11,11,0,0,0,.45-3v-.1a2.16,2.16,0,0,1,.19-.93,3.26,3.26,0,0,0,.74-2.07,3.66,3.66,0,0,0-1.09-2.59,5.7,5.7,0,0,0,.73-1,5,5,0,0,0,.77-2.61,3.86,3.86,0,0,0-1.64-3.23,4.86,4.86,0,0,0-2.8-.87Z" transform="translate(-3 -18.14)"/><path class="cls-1" d="M124.12,131a3.08,3.08,0,0,1-3-2.23c-.21-.57-.45-1.95-.79-7.93-.14-2.54-.29-4.13-.42-5.12a5.76,5.76,0,0,1-2,.36,3.45,3.45,0,0,1-2.06-.64,2.72,2.72,0,0,1-1.31-2.32,3.18,3.18,0,0,1,1.67-2.7l.09-.07.1,0a13.89,13.89,0,0,1,2.63-.77h0a2.57,2.57,0,0,0,1.07-.38,2.18,2.18,0,0,0,.24-.94c0-.66.09-1.34.14-2v-.06l.56-3.82a3.14,3.14,0,0,1,3.47-2.84,5.18,5.18,0,0,1,2.84.84l.14.09.12.12a2.66,2.66,0,0,1,.57,2.82l0,.1-.05.09a14.9,14.9,0,0,0-1.24,5.24l1.55-.16.2,1.53h0v-1.55c3.23,0,3.48,2,3.48,2.62a3.25,3.25,0,0,1-.14.91c-.31,1-1.19,2.24-3.66,2.56a19.33,19.33,0,0,1-2.23.12c0,1.24.19,3.58.48,7a56.22,56.22,0,0,1,.33,6.54A2.7,2.7,0,0,1,124.12,131Z" transform="translate(-3 -18.14)"/><path class="cls-2" d="M128.5,107.32v0a11.05,11.05,0,0,1,.84-2.78l.08-.17.06-.18a4,4,0,0,0-.91-4.22l-.23-.23-.27-.17a6.48,6.48,0,0,0-3.54-1,4.49,4.49,0,0,0-4.81,4l-.29,2-.24,1.61v.22c0,.6-.09,1.21-.14,1.84h-.12l-.05,0a15.28,15.28,0,0,0-2.81.83l-.2.09-.18.12a4.55,4.55,0,0,0-2.28,3.85,4.12,4.12,0,0,0,1.91,3.46,4.93,4.93,0,0,0,2.82.88c.2,0,.41,0,.61,0,.07.81.15,1.86.22,3.19.35,6.2.6,7.38.84,8.07a4.45,4.45,0,0,0,4.31,3.13,4.1,4.1,0,0,0,4.22-4,54.5,54.5,0,0,0-.32-6.48h0c-.21-2.42-.33-4-.39-5.14a7.46,7.46,0,0,0,.82-.08c3.29-.44,4.36-2.35,4.71-3.45v-.07a4.78,4.78,0,0,0,.18-1.29C133.33,109.48,132.07,107.32,128.5,107.32Zm2.1,4.33c-.25.8-1,1.28-2.4,1.46a32.93,32.93,0,0,1-3.51.11,7.47,7.47,0,0,0-.08,1.24q0,1.79.49,7.44.41,5.26.33,6.32a1.18,1.18,0,0,1-1.31,1.27,1.57,1.57,0,0,1-1.57-1.2,50.84,50.84,0,0,1-.71-7.55q-.33-6.31-.93-7.41a5,5,0,0,1-3,1.16,2,2,0,0,1-1.2-.37,1.22,1.22,0,0,1-.63-1.05,1.75,1.75,0,0,1,1-1.42,17,17,0,0,1,2.35-.67,3.34,3.34,0,0,0,1.95-.9,3.41,3.41,0,0,0,.6-1.8c0-.69.1-1.38.15-2,.12-.85.31-2.12.56-3.82.1-1,.75-1.49,1.94-1.49a3.64,3.64,0,0,1,2,.59,1.18,1.18,0,0,1,.19,1.28,18,18,0,0,0-1.46,7.63l3.41-.34c1.29,0,1.94.36,1.94,1.08A1.76,1.76,0,0,1,130.6,111.65Z" transform="translate(-3 -18.14)"/><path class="cls-1" d="M141.74,128.56a2.24,2.24,0,0,1-1.24-.39,3.26,3.26,0,0,1-1-1.23l-3.73-.63h-.09a5.88,5.88,0,0,1-3.81-2.64,4.55,4.55,0,0,1-.79-2.73,6.12,6.12,0,0,1,1.17-3.82,8.18,8.18,0,0,1,2.46-2.24,2.44,2.44,0,0,1-1.37-1.44,4.67,4.67,0,0,1-.4-1.91,1.94,1.94,0,0,1,.45-1.42l.08-.08.09-.06a10.84,10.84,0,0,1,6.2-1.87c3.28,0,4.74,1.61,5.4,3a7.65,7.65,0,0,1,.71,3.26,18.62,18.62,0,0,1-.51,3.7,33.23,33.23,0,0,0-.65,3.43,38.17,38.17,0,0,1-.39,3.91C143.87,127.48,143,128.56,141.74,128.56Z" transform="translate(-3 -18.14)"/><path class="cls-2" d="M139.73,109.24q3.24,0,4.35,2.3a6.4,6.4,0,0,1,.6,2.76,17.71,17.71,0,0,1-.48,3.46,30.54,30.54,0,0,0-.67,3.57c-.13,1.86-.25,3.13-.38,3.8-.29,1.51-.77,2.27-1.41,2.27a1.09,1.09,0,0,1-.61-.21,2.24,2.24,0,0,1-.66-.83c-.19-.35-.38-.52-.55-.52l-4-.67a4.81,4.81,0,0,1-3.12-2.16,3.35,3.35,0,0,1-.6-2.09,5,5,0,0,1,.93-3.12,7.64,7.64,0,0,1,6.55-3c1.24,0,1.84,0,1.79.11a2.19,2.19,0,0,0,.3-1.24c0-.64-.19-1-.56-1.08a4.76,4.76,0,0,0-1.12-.13,6,6,0,0,0-2.14.45c-.78.3-1.54.59-2.29.85a.85.85,0,0,1-.33.07c-.4,0-.72-.28-1-.85a3.52,3.52,0,0,1-.3-1.45c0-.33,0-.52.12-.6a9.55,9.55,0,0,1,5.54-1.67m-.26,13.69c.57,0,.89-.08,1-.26q.1-.53.48-1.86a5.94,5.94,0,0,0,.34-1.71,4,4,0,0,0-.34-1.56l-3.76.78a2.65,2.65,0,0,0-2.23,2.6c0,.57.52,1.06,1.64,1.45a7.82,7.82,0,0,0,2.9.56m.26-16a12,12,0,0,0-6.85,2.07l-.18.13-.16.15a3.06,3.06,0,0,0-.79,2.24,5.8,5.8,0,0,0,.5,2.38,4.44,4.44,0,0,0,.52.92,9.43,9.43,0,0,0-1.48,1.6,7.26,7.26,0,0,0-1.4,4.51,5.66,5.66,0,0,0,1,3.37,7,7,0,0,0,4.49,3.12l.1,0h.09l3.2.54a3.63,3.63,0,0,0,1.12,1.15,3.43,3.43,0,0,0,1.87.58c1.31,0,3-.72,3.69-4.14v0h0a40.2,40.2,0,0,0,.4-4,29.82,29.82,0,0,1,.62-3.26h0a19.71,19.71,0,0,0,.54-4,8.59,8.59,0,0,0-.82-3.74h0v0c-.8-1.65-2.56-3.61-6.44-3.61Z" transform="translate(-3 -18.14)"/><path class="cls-1" d="M33.44,95.48a2.4,2.4,0,0,1-1.4-.25,3.08,3.08,0,0,1-1.12-1l-3.35-.15h-.12A5.85,5.85,0,0,1,23.4,92a4.54,4.54,0,0,1-1.12-2.62A6,6,0,0,1,23,85.44a8.19,8.19,0,0,1,1.64-2.07,2.94,2.94,0,0,1-1.05-1.1,4.67,4.67,0,0,1-.63-1.86,2.11,2.11,0,0,1,.33-1.63l.08-.1.1-.09a10.42,10.42,0,0,1,5.71-2.53c3.22-.4,4.87,1,5.68,2.28a7.39,7.39,0,0,1,1.09,3.08,18.1,18.1,0,0,1,0,3.57,28.2,28.2,0,0,0-.2,3.19,34.42,34.42,0,0,1,.08,3.7C35.59,94.11,34.81,95.31,33.44,95.48Zm-5.8-7.06a3.55,3.55,0,0,0,.57.18,6.2,6.2,0,0,0,2,.18c0-.27.08-.58.13-.94v0a5.3,5.3,0,0,0,.11-.92l-1.94.65C27.81,87.83,27.66,88.15,27.64,88.42Z" transform="translate(-3 -18.14)"/><path class="cls-2" d="M29.32,77.49q3-.37,4.29,1.63a5.84,5.84,0,0,1,.87,2.48,16.53,16.53,0,0,1,0,3.26,29.17,29.17,0,0,0-.21,3.38c.1,1.74.13,2.92.09,3.55-.1,1.44-.45,2.19-1.05,2.27a1.1,1.1,0,0,1-.59-.12,2.18,2.18,0,0,1-.7-.7c-.22-.3-.42-.44-.58-.42l-3.76-.17A4.45,4.45,0,0,1,24.49,91a3.12,3.12,0,0,1-.78-1.86,4.67,4.67,0,0,1,.5-3,7.11,7.11,0,0,1,5.71-3.54c.66-.08,1.12-.13,1.39-.14a.43.43,0,0,0,.4-.35,2.36,2.36,0,0,0,0-.8c-.07-.59-.29-.9-.64-.94a5.26,5.26,0,0,0-1,0,5.79,5.79,0,0,0-1.93.67c-.68.37-1.36.72-2,1.05a.76.76,0,0,1-.3.1c-.36,0-.7-.18-1-.68a3.18,3.18,0,0,1-.44-1.31.89.89,0,0,1,0-.56,9,9,0,0,1,4.94-2.18m1.33,12.69c.53-.06.81-.18.86-.35q0-.49.24-1.77a5.77,5.77,0,0,0,.11-1.63,3.31,3.31,0,0,0-.3-1.05.43.43,0,0,0-.53-.23l-3,1a2.47,2.47,0,0,0-1.77,2.66c0,.54.6.92,1.68,1.16a7.37,7.37,0,0,0,2.75.18M29,74.63a11.81,11.81,0,0,0-6.49,2.88l-.2.18-.17.21a3.58,3.58,0,0,0-.62,2.69A6.21,6.21,0,0,0,22.32,83a3.62,3.62,0,0,0,.27.41,9.25,9.25,0,0,0-.88,1.3,7.54,7.54,0,0,0-.86,4.78,6,6,0,0,0,1.46,3.38,7.28,7.28,0,0,0,5,2.62l.12,0h.12l2.72.12a4.37,4.37,0,0,0,1.18.88,4,4,0,0,0,2.2.38c1.21-.15,3.29-1,3.57-4.91v0h0a35,35,0,0,0-.09-3.84c0-.41,0-1.26.2-3v0h0a18.83,18.83,0,0,0,.05-3.87,8.86,8.86,0,0,0-1.29-3.66v0h0c-.85-1.32-2.9-3.45-7.06-2.93Z" transform="translate(-3 -18.14)"/><path class="cls-1" d="M7.8,97.49a4.67,4.67,0,0,1-2.59-3.95,15.29,15.29,0,0,1-.1-1.82A12.73,12.73,0,0,0,5,90.24a81.73,81.73,0,0,1-.45-14.88,2.77,2.77,0,0,1,1.14-2,3.93,3.93,0,0,1,1.93-.81,2.63,2.63,0,0,1,3.09,1.88,15.36,15.36,0,0,1,.5,2.45,39.53,39.53,0,0,1,.07,6.1,38.37,38.37,0,0,0,.06,5.69,14,14,0,0,0,.35,1.82,13.91,13.91,0,0,0,4.83-1.31,4,4,0,0,1,2.05-1,3.32,3.32,0,0,1,1.3.1l.27.08.22.18c1.27,1,1.89,1.87,2,2.72a2,2,0,0,1-.18,1.07l0,.08-.06.08c-1.26,1.87-3.57,3-6.87,3.48l-2,.25a10.76,10.76,0,0,0-4.1,1.21l-.66.41Z" transform="translate(-3 -18.14)"/><path class="cls-2" d="M7.83,74c.83-.1,1.34.18,1.54.86A13.69,13.69,0,0,1,9.82,77a38,38,0,0,1,.06,5.87A38.72,38.72,0,0,0,10,88.83a15.07,15.07,0,0,0,.39,2A1.45,1.45,0,0,0,12,91.89a15,15,0,0,0,5.46-1.57,2.68,2.68,0,0,1,1.37-.73h0a1.37,1.37,0,0,1,1,.3A3,3,0,0,1,21,91.42a.43.43,0,0,1,0,.25q-1.53,2.28-5.87,2.85l-2,.25a14.13,14.13,0,0,0-4,1,1.43,1.43,0,0,1-1.72-.4,4,4,0,0,1-.78-2c0-.37-.07-.93-.08-1.67s0-1.29-.08-1.63A80.79,80.79,0,0,1,6,75.44a1.42,1.42,0,0,1,.6-1A2.4,2.4,0,0,1,7.83,74M7.48,71.1a5.22,5.22,0,0,0-2.63,1.11,4.15,4.15,0,0,0-1.7,3v0a83.8,83.8,0,0,0,.46,15.15,10.67,10.67,0,0,1,.06,1.32,18.26,18.26,0,0,0,.11,2,6.15,6.15,0,0,0,3.41,5.07l.7.33A1.44,1.44,0,0,0,9.27,99l.66-.41a9.34,9.34,0,0,1,3.54-1l1.94-.24h0c3.73-.49,6.38-1.87,7.88-4.11l.1-.15L23.5,93a3.31,3.31,0,0,0,.32-1.89A6,6,0,0,0,21.3,87.4l-.22-.18a1.42,1.42,0,0,0-.49-.25l-.26-.08a4.45,4.45,0,0,0-1.89-.16,5.17,5.17,0,0,0-2.6,1.16,1.32,1.32,0,0,1-.25.16,10.36,10.36,0,0,1-2.73.77c0-.11,0-.23,0-.34A34.46,34.46,0,0,1,12.76,83a41.37,41.37,0,0,0-.08-6.35A17.14,17.14,0,0,0,12.13,74a4.08,4.08,0,0,0-4.65-2.9Z" transform="translate(-3 -18.14)"/><path class="cls-2" d="M115,63.12A4.94,4.94,0,0,0,114,62a5.81,5.81,0,0,0-2.69-1.23h-.11a10,10,0,0,0-1.7-.14c-2.77,0-6.12,1-9.07,1.82-1,.29-2.27.66-3,.82-.57-.53-1.48-1.5-2.18-2.26-4-4.34-7.15-7.41-10.6-7.42a5,5,0,0,0-2.26.53c-.56.28-1.12.59-1.66.93-.42-.25-.85-.49-1.28-.7a5.13,5.13,0,0,0-2.26-.52c-3.45,0-6.56,3.08-10.59,7.43-.7.76-1.61,1.74-2.18,2.27-.76-.16-2-.53-3-.81-3-.85-6.29-1.81-9.05-1.81-3.22,0-4.78,1.38-5.52,2.54A19.15,19.15,0,0,0,44.34,78a2.57,2.57,0,0,0,.2.61c.21.77.46,1.52.73,2.25a3,3,0,0,0,.21.71,19.56,19.56,0,0,0,2.24,3.92A17.26,17.26,0,0,0,52.34,90a21.37,21.37,0,0,0,6.31,3.19,3.45,3.45,0,0,0,.8.37c1.2.36,2.38.65,3.41.91l.65.16.59.15h0a28.41,28.41,0,0,1,7.2,3.13,3.48,3.48,0,0,0,4.9-1.37,28.82,28.82,0,0,1,4.53-6.4l.25-.25,0,0a25.54,25.54,0,0,1,2.86,3.56c.58.91,1,1.7,1.29,2.19a3.63,3.63,0,0,0,.35.55l0,.09a3.46,3.46,0,0,0,4.9,1.36,28.57,28.57,0,0,1,7.19-3.14l1.27-.32c1.34-.34,2.86-.72,4.4-1.23a16.76,16.76,0,0,0,5.14-2.51,18.49,18.49,0,0,0,3.28-2.62,2.43,2.43,0,0,0,.34-.3,19.34,19.34,0,0,0,3.11-4.07,3.16,3.16,0,0,0,.36-.94A20.29,20.29,0,0,0,117,78.76a21.06,21.06,0,0,0,.55-2.53,3.09,3.09,0,0,0,.24-1A19.14,19.14,0,0,0,115,63.12Z" transform="translate(-3 -18.14)"/><ellipse class="cls-2" cx="58.44" cy="31.53" rx="21.33" ry="19.86"/><ellipse class="cls-2" cx="97.55" cy="31.75" rx="21.33" ry="19.86"/><path class="cls-3" d="M112.3,64.54c-2.12-3.37-14.11,2.71-15.9,2-1.88-.38-9.55-11-12.52-9.92-1.14.39-1.66,1.65-2.6,2.42a20.23,20.23,0,0,0-3.34-1.8c-3.56-1.79-10.56,9.27-12.45,9.61-1.81.65-13.1-4.63-15.28-1.3-2.42,3.7-3.88,7-2.67,11.66,1.11,4.25,3.25,7.7,6.67,9.9h0c2.71,2.18,7.22,3.35,10.11,4.13,3.32.91,7.33,1,8.66,1.76.4.25.27,1.38.5,1a32.18,32.18,0,0,1,4.91-6.64c.74-.75,2.34-2,3.25-2.91.81.85.91,2,1.57,2.72A31.68,31.68,0,0,1,88,93.9a.84.84,0,0,0,1.16.33,32.06,32.06,0,0,1,7.63-3.16c2.9-.73,7.15-1.35,9.89-3.47l0,0A17.07,17.07,0,0,0,114,77.63,16.31,16.31,0,0,0,112.3,64.54Z" transform="translate(-3 -18.14)"/><path class="cls-2" d="M98,18.59a7,7,0,0,0-5.38.58,7.06,7.06,0,1,0,10.17,8.18A7.06,7.06,0,0,0,98,18.59Z" transform="translate(-3 -18.14)"/><path class="cls-2" d="M124.22,28.43A7.08,7.08,0,0,0,120,25a7.07,7.07,0,0,0-4,13.56,7.07,7.07,0,0,0,8.19-10.17Z" transform="translate(-3 -18.14)"/><path class="cls-2" d="M47.07,24.88a7.07,7.07,0,0,0-10.43,7.86,7,7,0,0,0,8.61,5.06,7.06,7.06,0,0,0,1.82-12.92Z" transform="translate(-3 -18.14)"/><path class="cls-2" d="M69.31,19.12h0a7.06,7.06,0,1,0-3.6,13.15,7,7,0,0,0,6.85-8.83A7,7,0,0,0,69.31,19.12Z" transform="translate(-3 -18.14)"/><circle class="cls-4" cx="95.85" cy="25.36" r="4.21" transform="translate(29.76 83.71) rotate(-65.31)"/><path class="cls-4" d="M121.93,33a4.21,4.21,0,1,1-2.85-5.23A4.2,4.2,0,0,1,121.93,33Z" transform="translate(-3 -18.14)"/><path d="M105.88,33.36a19,19,0,0,0-21.67,8.5.4.4,0,0,0,.24.6L119,52.59a.4.4,0,0,0,.52-.37A19,19,0,0,0,105.88,33.36Zm-9.32,9.71a.55.55,0,0,1-.31-.82,6.85,6.85,0,0,1,7.57-3.3c2.88.85,4.67,3.77,4.59,7a.42.42,0,0,1-.54.39Z" transform="translate(-3 -18.14)"/><path d="M99.49,60.31a5.85,5.85,0,0,1-1.43-.23,5.45,5.45,0,0,1-4-4.58,1.16,1.16,0,0,1,2.31-.22,3.3,3.3,0,0,0,5.66,1.66,1.16,1.16,0,0,1,1.62-.2,1.14,1.14,0,0,1,.2,1.62A5.27,5.27,0,0,1,99.49,60.31Z" transform="translate(-3 -18.14)"/><path d="M42.38,50.9a.35.35,0,0,0,.37.35,15.89,15.89,0,0,0,2.94-.46A15.42,15.42,0,0,0,57,32.83c-.07-.07-.32,0-.48,0A18.87,18.87,0,0,0,42.38,50.9Z" transform="translate(-3 -18.14)"/><path d="M76.7,41.05a.36.36,0,0,0,.15-.53,18.77,18.77,0,0,0-17.34-8.17c-.07,0,0,.3,0,.45a12.47,12.47,0,0,0,15.19,8.94A12.62,12.62,0,0,0,76.7,41.05Z" transform="translate(-3 -18.14)"/><path class="cls-4" d="M47.43,29.91a4.21,4.21,0,1,1-5.13-3A4.2,4.2,0,0,1,47.43,29.91Z" transform="translate(-3 -18.14)"/><path class="cls-4" d="M69.67,24.15a4.21,4.21,0,1,1-5.13-3A4.21,4.21,0,0,1,69.67,24.15Z" transform="translate(-3 -18.14)"/><path d="M62.18,59.84a5.29,5.29,0,0,1-4.1-2.08A1.16,1.16,0,0,1,60,56.4a3.31,3.31,0,0,0,5.72-1.48A1.15,1.15,0,1,1,68,55.2a5.44,5.44,0,0,1-4.11,4.46A6,6,0,0,1,62.18,59.84Z" transform="translate(-3 -18.14)"/><path d="M109.87,85a16.15,16.15,0,0,0,2.61-3.41l-25.6-8.51a16.64,16.64,0,0,1-1.48,5.61Z" transform="translate(-3 -18.14)"/><path d="M112.33,64.56c-2.14-3.34-14,2.26-15.82,1.6-1.88-.35-9.19-11.27-12.75-9.51a14.91,14.91,0,0,0-3,2,16.65,16.65,0,0,1,5.55,8.48q.2.69.33,1.38l28.05,6.21A15.85,15.85,0,0,0,112.33,64.56Z" transform="translate(-3 -18.14)"/><path d="M83.32,87.42a31.64,31.64,0,0,1,5.09,7.16.3.3,0,0,0,.42.11,32,32,0,0,1,8-3.51c2.87-.76,7.26-1.61,10-3.74L81.8,84.27,81,85.1C81.84,86,82.65,86.73,83.32,87.42Z" transform="translate(-3 -18.14)"/><path d="M52.48,85.82l34-10.13a16.48,16.48,0,0,0,.47-4.28L48.42,80.08A16.64,16.64,0,0,0,52.48,85.82Z" transform="translate(-3 -18.14)"/><path d="M85.25,64.36A15.84,15.84,0,0,0,78,56.88c-3.56-1.75-10.85,9.18-12.73,9.54-1.79.66-13.68-4.92-15.82-1.58a16.14,16.14,0,0,0-2,12.22Z" transform="translate(-3 -18.14)"/><path d="M60.38,90.24c1.64.49,3.26.85,4.57,1.2A31.78,31.78,0,0,1,73,94.94a.29.29,0,0,0,.41-.12,32,32,0,0,1,5.09-7.16c2.07-2.13,5.39-5.13,6.62-8.36Z" transform="translate(-3 -18.14)"/></svg>