<?xml version="1.0" encoding="utf-8"?>
<!-- Generator: Adobe Illustrator 24.3.0, SVG Export Plug-In . SVG Version: 6.00 Build 0)  -->
<svg version="1.1" id="Layer_1" xmlns="http://www.w3.org/2000/svg" xmlns:xlink="http://www.w3.org/1999/xlink" x="0px" y="0px"
	 viewBox="0 0 512 512" style="enable-background:new 0 0 512 512;" xml:space="preserve">
<style type="text/css">
	.st0{fill:#FFFFFF;}
	.st1{fill:#FED10F;}
	.st2{fill:#F7A81F;}
</style>
<g>
	<path class="st0" d="M449.5,283.3c-1.5-2.4-3.5-4.5-5.6-6.3c-4.4-3.6-9.6-6-15.2-6.9H428c-3.2-0.5-6.4-0.8-9.6-0.8
		c-15.6,0-34.6,5.6-51.2,10.3c-5.6,1.6-12.8,3.7-16.9,4.6c-3.2-3-8.4-8.5-12.3-12.8c-22.6-24.5-40.4-41.8-59.9-41.9
		c-4.4,0-8.8,1-12.8,3c-3.2,1.6-6.3,3.3-9.4,5.3c-2.4-1.4-4.8-2.8-7.2-4c-4-1.9-8.3-2.9-12.8-2.9c-19.5,0-37,17.4-59.8,42
		c-4,4.3-9.1,9.8-12.3,12.8c-4.3-0.9-11.3-3-16.9-4.6c-16.9-4.8-35.5-10.2-51.1-10.2c-18.2,0-27,7.8-31.2,14.3
		c-15.5,24.4-20.6,54-14.2,82.2c0.2,1.2,0.6,2.3,1.1,3.4c1.2,4.3,2.6,8.6,4.1,12.7c0.2,1.4,0.6,2.7,1.2,4
		c3.3,7.8,7.6,15.3,12.6,22.1c7,10.1,15.9,18.7,26.1,25.5c10.8,7.9,22.8,14,35.6,18c1.4,0.9,2.9,1.6,4.5,2.1
		c6.8,2,13.4,3.7,19.3,5.1l3.7,0.9l3.3,0.8l0,0c14.3,4,28,9.9,40.7,17.7c9.3,5.6,21.4,2.7,27-6.6c0.2-0.4,0.5-0.8,0.7-1.2
		c6.8-13.2,15.4-25.3,25.6-36.1l1.4-1.4l0,0c6,6.2,11.4,12.9,16.2,20.1c3.3,5.1,5.6,9.6,7.3,12.4c0.6,1.1,1.2,2.1,2,3.1v0.5
		c4.9,9.6,16.7,13.4,26.3,8.5c0.5-0.2,0.9-0.5,1.4-0.8c12.7-7.7,26.3-13.7,40.6-17.7l7.2-1.8c7.6-1.9,16.2-4.1,24.8-6.9
		c10.4-3,20.2-7.8,29-14.2c6.7-4.2,12.9-9.2,18.5-14.8c0.7-0.5,1.3-1.1,1.9-1.7c6.8-6.8,12.8-14.6,17.6-23c1-1.6,1.6-3.4,2-5.3
		c3.6-6.8,6.5-13.8,8.6-21.2c1.3-4.7,2.4-9.5,3.1-14.3c0.8-1.8,1.2-3.7,1.4-5.6C467.8,327.8,462.2,303.7,449.5,283.3z"/>
	<ellipse class="st0" cx="147" cy="207.4" rx="120.5" ry="112.1"/>
	<ellipse class="st0" cx="367.9" cy="208.6" rx="120.5" ry="112.1"/>
	<path class="st1" d="M434.3,291.3c-12-19-79.7,15.3-89.8,11.3c-10.6-2.1-53.9-62.1-70.7-56c-6.4,2.2-9.4,9.3-14.7,13.7
		c-6-4-12.3-7.4-18.9-10.2c-20.1-10.1-59.6,52.3-70.3,54.3c-10.2,3.7-74-26.1-86.3-7.3c-13.7,20.9-21.9,39.5-15.1,65.8
		c6.3,24,18.4,43.5,37.7,55.9l0,0c15.3,12.3,40.8,18.9,57.1,23.3c18.7,5.1,41.4,5.6,48.9,9.9c2.3,1.4,1.5,7.8,2.8,5.6
		c7.6-13.6,16.9-26.2,27.7-37.5c4.2-4.2,13.2-11.3,18.4-16.4c4.6,4.8,5.1,11.3,8.9,15.4c10.6,11.4,19.7,24.2,27,38
		c1.2,2.3,4.1,3.2,6.4,1.9c0,0,0.1,0,0.1-0.1c13.5-7.8,28-13.8,43.1-17.8c16.4-4.1,40.4-7.6,55.8-19.6l0,0
		c20.3-12.9,35.1-33,41.3-56.3C451.2,340.4,447.7,313.5,434.3,291.3z"/>
	<path class="st0" d="M353.5,31.8c-10.2-3-21.1-1.8-30.4,3.3c-19.3,10.6-26.4,34.8-15.8,54.1s34.8,26.4,54.1,15.8
		c9.2-5.1,16.1-13.6,19.1-23.7C386.7,60.2,374.6,38,353.5,31.8z"/>
	<path class="st0" d="M501.6,87.4c-5-9.4-13.6-16.3-23.8-19.4c-21.3-5.9-43.2,6.6-49.1,27.9c-5.7,20.7,6,42.2,26.5,48.7
		c21.2,6.2,43.3-6,49.5-27.1c3-10.1,1.8-21-3.3-30.3L501.6,87.4z"/>
	<path class="st0" d="M65.9,67.4c-19-11.2-43.5-4.8-54.7,14.2c-5.4,9.1-6.9,20-4.2,30.2c5.3,21.2,26.8,34.1,47.9,28.7
		c0.2-0.1,0.5-0.1,0.7-0.2c21.3-5.5,34.1-27.2,28.7-48.6C81.6,81.5,75,72.7,65.9,67.4z"/>
	<path class="st0" d="M191.5,34.8L191.5,34.8c-19-11.1-43.4-4.8-54.6,14.2c-11.1,19-4.8,43.4,14.2,54.6c6.1,3.6,13,5.4,20,5.5
		c21.8,0.3,39.8-17.2,40.1-39c0-3.7-0.4-7.3-1.4-10.9C207.2,49,200.6,40.2,191.5,34.8z"/>
	<circle class="st2" cx="341.3" cy="70.1" r="23.8"/>
	<path class="st2" d="M488.6,113.2c-3.7,12.6-16.9,19.8-29.5,16.1c-12.6-3.7-19.8-16.9-16.1-29.5c3.7-12.6,16.9-19.8,29.5-16.1
		c12.6,3.7,19.8,16.8,16.1,29.4C488.7,113.1,488.6,113.2,488.6,113.2z"/>
	<path d="M398,115.3c-47-13.8-97.3,6-122.4,48c-0.7,1.1-0.3,2.5,0.7,3.1c0.2,0.1,0.4,0.2,0.6,0.3l195.1,57.2
		c1.2,0.4,2.5-0.3,2.8-1.5c0.1-0.2,0.1-0.4,0.1-0.6C476.6,172.8,445,129,398,115.3z M345.4,170.1c-1.6-0.5-2.6-2.2-2.1-3.9
		c0.1-0.3,0.2-0.5,0.3-0.8c8.5-15.1,25.9-22.7,42.7-18.6c16.3,4.8,26.4,21.3,25.9,39.5c0,1.3-1.1,2.3-2.4,2.3c-0.2,0-0.4,0-0.6-0.1
		L345.4,170.1z"/>
	<path d="M361.9,267.4c-2.7-0.1-5.4-0.5-8.1-1.3c-12.1-3.2-21-13.5-22.6-25.9c-0.3-3.6,2.3-6.8,5.9-7.1c3.6-0.3,6.8,2.3,7.1,5.9l0,0
		c1.8,10.1,11.5,16.8,21.7,15c3.9-0.7,7.6-2.7,10.3-5.6c2.2-2.8,6.3-3.3,9.1-1.1c2.8,2.2,3.4,6.2,1.2,9c0,0-0.1,0.1-0.1,0.1
		C380.6,263.8,371.4,267.9,361.9,267.4z"/>
	<path d="M39.4,214.3c0,1.1,0.9,2,2,2c0,0,0.1,0,0.1,0c5.6-0.3,11.2-1.2,16.6-2.6c44.9-11.4,72.9-56,63.9-101.4
		c-0.4-0.4-1.8,0-2.7,0C72.6,124.3,39.9,166.2,39.4,214.3z"/>
	<path d="M233.2,158.7c1-0.5,1.5-1.7,1-2.7c0-0.1-0.1-0.2-0.2-0.3c-21.7-32.1-59.3-49.8-97.9-46.1c-0.4,0,0,1.7,0,2.5
		c9.8,37.6,48.2,60.2,85.8,50.5C225.8,161.6,229.6,160.3,233.2,158.7z"/>
	<path class="st2" d="M67.9,95.8c3.4,12.7-4.2,25.7-16.9,29.1c-12.7,3.4-25.7-4.2-29.1-16.9s4.2-25.7,16.9-29.1c0,0,0.1,0,0.1,0
		C51.6,75.5,64.6,83.1,67.9,95.8C67.9,95.8,67.9,95.8,67.9,95.8z"/>
	<path class="st2" d="M193.5,63.2c3.4,12.7-4.2,25.7-16.9,29.1c-12.7,3.4-25.7-4.2-29.1-16.9s4.2-25.7,16.9-29.1c0,0,0.1,0,0.1,0
		C177.2,43,190.2,50.6,193.5,63.2z"/>
	<path d="M151.2,264.8c-9.1-0.2-17.6-4.5-23.2-11.7c-2.1-3-1.4-7.1,1.6-9.3s7.1-1.4,9.3,1.6c6.8,7.8,18.6,8.5,26.4,1.7
		c3-2.6,5.1-6.2,5.9-10.1c0.3-3.6,3.4-6.3,6.9-6c3.6,0.3,6.3,3.4,6,6.9c0,0.2,0,0.4-0.1,0.6c-1.9,12.3-11.1,22.3-23.2,25.2
		C157.7,264.6,154.5,264.9,151.2,264.8z"/>
	<path d="M420.5,406.9c5.7-5.7,10.7-12.2,14.7-19.3l-144.6-48.1c-0.9,11-3.7,21.7-8.4,31.7L420.5,406.9z"/>
	<path d="M434.4,291.4c-12.1-18.9-79.1,12.8-89.3,9c-10.6-2-51.9-63.6-72-53.7c-6.1,3.1-11.8,6.9-16.9,11.3
		c15.2,12.3,26.1,29.1,31.3,47.9c0.8,2.6,1.4,5.2,1.9,7.8l158.4,35.1C449.9,328.7,445.2,308.5,434.4,291.4z"/>
	<path d="M270.6,420.5c11.4,12.1,21.1,25.7,28.7,40.4c0.5,0.8,1.5,1.1,2.3,0.7c0,0,0,0,0.1,0c14.1-8.6,29.3-15.3,45.2-19.8
		c16.2-4.3,41-9.1,56.5-21.1L262,402.7l-4.5,4.7C262.2,412.5,266.8,416.6,270.6,420.5z"/>
	<path d="M96.4,411.5l192-57.2c1.9-7.9,2.8-16,2.7-24.2l-217.6,49C78.8,391.4,86.6,402.4,96.4,411.5z"/>
	<path d="M281.5,290.3c-8.5-18.3-22.9-33.2-40.9-42.2c-20.1-9.9-61.3,51.8-71.9,53.9c-10.1,3.7-77.3-27.8-89.3-8.9
		c-12.8,20.6-16.9,45.4-11.3,69L281.5,290.3z"/>
	<path d="M141.1,436.5c9.3,2.8,18.4,4.8,25.8,6.8c16,4.5,31.3,11.1,45.5,19.8c0.8,0.5,1.8,0.2,2.2-0.6c0,0,0-0.1,0.1-0.1
		c7.7-14.7,17.3-28.3,28.7-40.4c11.7-12,30.4-29,37.4-47.2L141.1,436.5z"/>
</g>
</svg>
